<?xml version="1.0" encoding="utf-8"?>
<!-- Generator: Adobe Illustrator 21.0.0, SVG Export Plug-In . SVG Version: 6.00 Build 0)  -->
<svg version="1.1" id="Layer_1" xmlns="http://www.w3.org/2000/svg" xmlns:xlink="http://www.w3.org/1999/xlink" x="0px" y="0px"
	 viewBox="0 0 1366 768" style="enable-background:new 0 0 1366 768;" xml:space="preserve">
<style type="text/css">
	.st0{fill:url(#SVGID_1_);}
	.st1{fill:none;stroke:#29ABE2;stroke-width:2.8219;stroke-miterlimit:10;}
	.st2{fill:#0071BC;}
	.st3{fill:#54A5D3;}
	.st4{fill:#FFFF00;}
	.st5{fill:none;stroke:#FFFFFF;stroke-width:2.8219;stroke-miterlimit:10;}
	.st6{fill:#88B9EA;}
	.st7{fill:#1B1464;}
	.st8{opacity:0.82;}
	.st9{fill:#FFFFFF;}
	.st10{opacity:0.51;}
</style>
<linearGradient id="SVGID_1_" gradientUnits="userSpaceOnUse" x1="543.7844" y1="903.5597" x2="794.4653" y2="-31.994">
	<stop  offset="1.992517e-02" style="stop-color:#1B1464"/>
	<stop  offset="0.8147" style="stop-color:#29ABE2"/>
</linearGradient>
<polygon class="st0" points="0,0 876,0 1366,583 1366,768 0,768 "/>
<g id="Mobile">
	<path class="st1" d="M1176.5,148.4L886,351.8c-5.8,4.1-5.2,13.2,1.2,16.4l84.9,42.8c9.1,4.6,19.8,3.8,28.2-2l285.6-200
		c5.8-4.1,5.2-13.2-1.2-16.4l-90.2-45.4C1188.6,144.2,1181.8,144.7,1176.5,148.4z"/>
	<path class="st2" d="M1311.8,260.7l-3.1-37.5l-34.5,13.7l-72.4-36.5c-6.7-3.4-14.6-2.8-20.7,1.5L944.9,367.4l-106.1,42.1l2.8,37.5
		l0.1,0c0.4,3.4,2.4,6.7,5.8,8.4l97.9,49.3c3.9,1.9,8,3,12.1,3.3l0,0l0,0c7.1,0.5,14.3-1.4,20.3-5.7l329.5-230.7
		c3.7-2.6,5.1-6.9,4.4-10.9L1311.8,260.7z"/>
	<path class="st3" d="M1178.5,165.6L843.4,400.3c-6.7,4.7-6,15.2,1.4,18.9l97.9,49.3c10.5,5.3,22.9,4.4,32.5-2.3l329.5-230.7
		c6.7-4.7,6-15.2-1.4-18.9l-104.1-52.4C1192.5,160.8,1184.6,161.3,1178.5,165.6z"/>
	<path class="st4" d="M1287.6,233.1L1002,433c-8.3,5.8-19.1,6.6-28.2,2L889,392.3c-2.7-1.3-4.3-3.7-4.9-6.3
		c-0.3,3.7,1.4,7.5,5.1,9.3l84.9,42.8c9.1,4.6,19.8,3.8,28.2-2l285.6-200c3.4-2.4,4.5-6.4,3.7-10
		C1291.3,228.8,1290.1,231.4,1287.6,233.1z"/>
	<path class="st4" d="M888,379l290.5-203.4c5.3-3.7,12.1-4.2,17.9-1.3l90.2,45.4c2.7,1.3,4.3,3.7,4.9,6.3c0.3-3.7-1.4-7.5-5.1-9.3
		l-90.2-45.4c-5.8-2.9-12.6-2.4-17.9,1.3L887.8,376c-3.4,2.4-4.5,6.4-3.7,10C884.3,383.3,885.6,380.7,888,379z"/>
	<path class="st4" d="M889,392.3l84.9,42.8c9.1,4.6,19.8,3.8,28.2-2l285.6-200c2.5-1.7,3.7-4.3,3.9-7c-0.6-2.6-2.2-5-4.9-6.3
		l-90.2-45.4c-5.8-2.9-12.6-2.4-17.9,1.3L888,379c-2.5,1.7-3.7,4.3-3.9,7C884.7,388.6,886.3,391,889,392.3z"/>
	<path class="st5" d="M1176.2,145.4L885.8,348.7c-5.8,4.1-5.2,13.2,1.2,16.4l84.9,42.8c9.1,4.6,19.8,3.8,28.2-2l285.6-200
		c5.8-4.1,5.2-13.2-1.2-16.4l-90.2-45.4C1188.4,141.2,1181.5,141.6,1176.2,145.4z"/>
	<path class="st6" d="M935,434.9l-31.7-15.9c-3.6-1.8-9.8-1.1-13.6,1.6h0c-3.8,2.7-4,6.4-0.4,8.2l31.7,15.9
		c3.6,1.8,9.8,1.1,13.6-1.6v0C938.5,440.4,938.6,436.7,935,434.9z"/>
	<path class="st7" d="M923.6,467.5l-58-29c-5.9-2.9-10.3-0.6-9.9,5.2l0,0c0.4,5.8,5.6,13,11.5,15.9l58,29c5.9,2.9,10.3,0.6,9.9-5.2
		v0C934.7,477.6,929.5,470.4,923.6,467.5z"/>
	<path class="st7" d="M1242,285.4l53-37.4c5.4-3.8,10.1-2.1,10.6,3.7v0c0.4,5.8-3.6,13.7-9,17.5l-53,37.4
		c-5.4,3.8-10.1,2.1-10.6-3.7v0C1232.6,297,1236.6,289.2,1242,285.4z"/>
	<g class="st8">
		<polygon class="st9" points="1129.6,178 1098.9,199.5 1108.7,329.7 1139.4,308.2 		"/>
		<polygon class="st9" points="1024.9,388.3 1047.3,372.7 1037.5,242.5 1015.2,258.1 		"/>
		<path class="st9" d="M1284.4,189.5l-34.7-17.5l4.2,56l31.7-22.2C1291.4,201.8,1290.7,192.7,1284.4,189.5z"/>
		<path class="st9" d="M1170.1,286.7l55.8-39.1l-6.8-91l-24.9-12.6c-5.8-2.9-12.6-2.4-17.9,1.3l-15.9,11.1L1170.1,286.7z"/>
		<path class="st9" d="M917.5,326.6l-31.7,22.2c-5.8,4.1-5.2,13.2,1.2,16.4l34.7,17.5L917.5,326.6z"/>
		<path class="st9" d="M995.6,271.8l-22.3,15.6l9.3,123.3c6.1,0.4,12.2-1.3,17.4-4.9l5.4-3.8L995.6,271.8z"/>
	</g>
	<g class="st10">
		<polygon class="st9" points="1131.9,208.2 1101.2,229.7 1111,359.9 1141.7,338.4 		"/>
		<polygon class="st9" points="1027.2,418.6 1049.6,402.9 1039.8,272.7 1017.4,288.4 		"/>
		<path class="st9" d="M1286.6,219.7l-34.7-17.5l4.2,56l31.7-22.2C1293.6,232,1293,222.9,1286.6,219.7z"/>
		<path class="st9" d="M1172.4,316.9l55.8-39.1l-6.8-91l-24.9-12.6c-5.8-2.9-12.6-2.4-17.9,1.3l-15.9,11.1L1172.4,316.9z"/>
		<path class="st9" d="M919.7,356.8L888,379c-5.8,4.1-5.2,13.2,1.2,16.4l34.7,17.5L919.7,356.8z"/>
		<path class="st9" d="M997.9,302.1l-22.3,15.6l9.3,123.3c6.1,0.4,12.2-1.3,17.4-4.9l5.4-3.8L997.9,302.1z"/>
	</g>
</g>
</svg>
